<svg width="200" height="60" viewBox="0 0 200 60" fill="none" xmlns="http://www.w3.org/2000/svg">
  <!-- Background -->
  <rect width="200" height="60" rx="10" fill="url(#bgGradient)"/>
  
  <!-- Logo Icon -->
  <g transform="translate(10, 15)">
    <circle cx="15" cy="15" r="12" fill="url(#logoGradient)"/>
    <path d="M5 15 L8 15 L10 10 L12 20 L14 8 L16 22 L18 12 L20 18 L25 15" 
          stroke="#ffffff" stroke-width="1.5" fill="none" stroke-linecap="round"/>
    <circle cx="8" cy="15" r="1" fill="#ffffff"/>
    <circle cx="10" cy="10" r="1" fill="#4CAF50"/>
    <circle cx="12" cy="20" r="1" fill="#f44336"/>
    <circle cx="14" cy="8" r="1" fill="#2196F3"/>
    <circle cx="16" cy="22" r="1" fill="#FF9800"/>
    <circle cx="18" cy="12" r="1" fill="#9C27B0"/>
    <circle cx="20" cy="18" r="1" fill="#00BCD4"/>
    <circle cx="25" cy="15" r="1" fill="#ffffff"/>
  </g>
  
  <!-- Text -->
  <text x="50" y="25" font-family="Arial, sans-serif" font-size="16" font-weight="bold" fill="#ffffff">AutoFlow AI</text>
  <text x="50" y="42" font-family="Arial, sans-serif" font-size="10" fill="rgba(255,255,255,0.8)">CI/CD Pipeline Dashboard</text>
  
  <!-- AI Badge -->
  <g transform="translate(160, 10)">
    <rect width="30" height="16" rx="8" fill="rgba(255,255,255,0.2)"/>
    <text x="15" y="12" text-anchor="middle" font-family="Arial, sans-serif" font-size="8" font-weight="bold" fill="#ffffff">AI</text>
  </g>
  
  <!-- Status Indicator -->
  <circle cx="175" cy="45" r="3" fill="#4CAF50"/>
  <text x="182" y="48" font-family="Arial, sans-serif" font-size="8" fill="rgba(255,255,255,0.7)">Active</text>
  
  <defs>
    <linearGradient id="bgGradient" x1="0%" y1="0%" x2="100%" y2="100%">
      <stop offset="0%" style="stop-color:#1976D2;stop-opacity:1" />
      <stop offset="100%" style="stop-color:#03DAC6;stop-opacity:1" />
    </linearGradient>
    <linearGradient id="logoGradient" x1="0%" y1="0%" x2="100%" y2="100%">
      <stop offset="0%" style="stop-color:#2196F3;stop-opacity:1" />
      <stop offset="100%" style="stop-color:#00BCD4;stop-opacity:1" />
    </linearGradient>
  </defs>
</svg>
